# This file uses centimeters as units for non-parametric coordinates.

mtllib Ponte.mtl
g default
v 12.543545 -28.775468 4.280256
v 12.230169 -28.775468 5.036811
v 11.473613 -28.775468 5.350187
v 11.473613 9.095844 5.350187
v 12.230169 9.095844 5.036811
v 12.543545 9.095844 4.280256
v 12.543545 13.195921 -4.280256
v 12.230169 13.060989 -5.036811
v 11.473614 12.735234 -5.350187
v 12.543545 9.095844 -4.280256
v 12.230169 9.095844 -5.036811
v 11.473613 9.095844 -5.350187
v 11.473613 12.735234 5.350187
v 12.230169 13.060989 5.036811
v 12.543545 13.195921 4.280256
v 12.230169 -28.775468 -5.036811
v 12.543545 -28.775468 -4.280256
v 11.473613 -28.775468 -5.350187
v -8.551163 31.677498 5.350187
v -8.250026 32.434053 5.036811
v -8.125289 32.747429 4.280256
v -8.125289 32.747429 -4.280256
v -8.250026 32.434053 -5.036811
v -8.551163 31.677498 -5.350187
v 5.007937 26.804960 5.350187
v 5.537802 27.345154 5.036811
v 5.757279 27.568912 4.280256
v 5.757279 27.568909 -4.280256
v 5.537802 27.345154 -5.036811
v 5.007937 26.804960 -5.350187
v -17.623134 31.677498 5.350187
v -17.623134 32.747429 4.280256
v -17.623134 32.747426 -4.280256
v -17.623134 31.677498 -5.350187
v -17.623134 32.434053 5.036811
v -17.623134 32.434053 -5.036811
v -47.789813 -28.775468 4.280256
v -47.476443 -28.775468 5.036811
v -46.719884 -28.775468 5.350187
v -46.719884 9.095844 5.350187
v -47.476443 9.095844 5.036811
v -47.789813 9.095844 4.280256
v -47.789813 13.195921 -4.280256
v -47.476443 13.060989 -5.036811
v -46.719884 12.735234 -5.350187
v -47.789813 9.095844 -4.280256
v -47.476443 9.095844 -5.036811
v -46.719884 9.095844 -5.350187
v -46.719884 12.735234 5.350187
v -47.476443 13.060989 5.036811
v -47.789813 13.195921 4.280256
v -47.476443 -28.775468 -5.036811
v -47.789813 -28.775468 -4.280256
v -46.719884 -28.775468 -5.350187
v -26.695107 31.677498 5.350187
v -26.996242 32.434053 5.036811
v -27.120979 32.747429 4.280256
v -27.120979 32.747429 -4.280256
v -26.996242 32.434053 -5.036811
v -26.695107 31.677498 -5.350187
v -40.254210 26.804960 5.350187
v -40.784072 27.345154 5.036811
v -41.003549 27.568912 4.280256
v -41.003549 27.568909 -4.280256
v -40.784072 27.345154 -5.036811
v -40.254210 26.804960 -5.350187
v 1.843166 -28.775468 -0.119844
v 1.843166 9.095844 -0.119844
v 1.843166 13.195921 -0.119844
v -1.071430 20.187882 -0.119844
v -8.125294 22.047057 -0.119844
v -17.623134 22.047057 -0.119844
v -27.120976 22.047057 -0.119844
v -34.174840 20.187882 -0.119844
v -37.089440 13.195921 -0.119844
v -37.089440 9.095844 -0.119844
v -37.089440 -28.775468 -0.119844
v 1.843166 -28.775468 3.781241
v 3.412112 -28.775468 5.350187
v 3.412112 9.095844 5.350187
v 1.843166 9.095844 3.781241
v 3.412112 13.509838 -5.350187
v 1.843166 13.195921 -3.781241
v 1.843166 9.095844 -3.781241
v 3.412112 9.095844 -5.350187
v 1.843166 13.195921 3.781241
v 3.412112 13.509838 5.350187
v 3.412112 -28.775468 -5.350187
v 1.843166 -28.775468 -3.781241
v 0.078344 21.507364 5.350187
v -1.071430 20.187882 3.781241
v 0.078344 21.507364 -5.350187
v -1.071430 20.187882 -3.781241
v -7.922005 23.616004 5.350187
v -8.125294 22.047057 3.781241
v -17.623134 22.047057 3.781241
v -17.623134 23.616004 5.350187
v -7.922005 23.616004 -5.350187
v -8.125294 22.047057 -3.781241
v -17.623134 23.616004 -5.350187
v -17.623134 22.047057 -3.781241
v -38.658388 13.509838 5.350187
v -37.089440 13.195921 3.781241
v -38.658388 9.095844 5.350187
v -37.089440 9.095844 3.781241
v -38.658388 13.509838 -5.350187
v -37.089440 13.195921 -3.781241
v -37.089440 9.095844 -3.781241
v -38.658388 9.095844 -5.350187
v -37.089440 -28.775468 3.781241
v -38.658388 -28.775468 5.350187
v -38.658388 -28.775468 -5.350187
v -37.089440 -28.775468 -3.781241
v -27.120976 22.047057 3.781241
v -27.324266 23.616004 5.350187
v -35.324616 21.507364 5.350187
v -34.174840 20.187882 3.781241
v -27.324266 23.616004 -5.350187
v -27.120976 22.047057 -3.781241
v -35.324616 21.507364 -5.350187
v -34.174840 20.187882 -3.781241
v 12.543545 -28.775468 -0.085691
v 12.543545 9.095844 -0.085691
v 12.543545 13.195921 -0.085691
v 5.757279 27.568912 -0.085691
v -8.125289 32.747429 -0.085691
v -17.623134 32.747429 -0.085691
v -27.120979 32.747429 -0.085691
v -41.003549 27.568912 -0.085691
v -47.789813 13.195921 -0.085691
v -47.789813 9.095844 -0.085691
v -47.789813 -28.775468 -0.085691
vt 0.478486 0.996048
vt 0.468021 0.997565
vt 0.459102 0.838390
vt 0.467327 0.836156
vt 0.457483 0.998957
vt 0.450761 0.840037
vt 0.347594 0.832998
vt 0.355645 0.835913
vt 0.336331 0.991186
vt 0.325978 0.989170
vt 0.363858 0.838313
vt 0.346750 0.993051
vt 0.366943 0.824545
vt 0.448582 0.826540
vt 0.457569 0.747204
vt 0.362971 0.744369
vt 0.362387 0.602551
vt 0.466369 0.605620
vt 0.365518 0.498133
vt 0.469048 0.501400
vt 0.577781 0.972925
vt 0.602236 0.965214
vt 0.164808 0.938001
vt 0.204303 0.951817
vt 0.228489 0.960874
vt 0.456156 0.825737
vt 0.463017 0.823141
vt 0.354233 0.743817
vt 0.353112 0.601789
vt 0.348762 0.740380
vt 0.347665 0.599088
vt 0.352738 0.820232
vt 0.359428 0.823265
vt 0.471987 0.744104
vt 0.466323 0.747195
vt 0.475673 0.605420
vt 0.481265 0.603053
vt 0.478235 0.501659
vt 0.483456 0.501807
vt 0.356330 0.497871
vt 0.351108 0.497722
vt 0.509616 0.007624
vt 0.483736 0.166882
vt 0.475911 0.164119
vt 0.499032 0.005568
vt 0.467904 0.161916
vt 0.488394 0.003630
vt 0.366064 0.163904
vt 0.355028 0.004084
vt 0.365567 0.002592
vt 0.374178 0.161538
vt 0.376168 0.001238
vt 0.382418 0.159703
vt 0.465320 0.175177
vt 0.384903 0.173908
vt 0.471685 0.254775
vt 0.472223 0.397195
vt 0.368310 0.393578
vt 0.376444 0.252839
vt 0.255638 0.027311
vt 0.231185 0.035036
vt 0.667542 0.060943
vt 0.624980 0.047669
vt 0.600340 0.039300
vt 0.479507 0.179439
vt 0.472787 0.176448
vt 0.358993 0.393825
vt 0.367702 0.252844
vt 0.353398 0.396211
vt 0.362062 0.255917
vt 0.370505 0.177102
vt 0.377342 0.174591
vt 0.486003 0.258690
vt 0.486948 0.400599
vt 0.481502 0.397914
vt 0.480474 0.255269
vt 0.536713 0.791948
vt 0.557999 0.781721
vt 0.526470 0.771929
vt 0.548045 0.758456
vt 0.292581 0.764805
vt 0.271948 0.750012
vt 0.289397 0.694196
vt 0.310978 0.703746
vt 0.280988 0.784093
vt 0.260547 0.772568
vt 0.511880 0.709798
vt 0.534026 0.701557
vt 0.517555 0.615868
vt 0.537004 0.615409
vt 0.291315 0.608210
vt 0.310706 0.609771
vt 0.522129 0.502862
vt 0.541602 0.503385
vt 0.523913 0.389823
vt 0.543279 0.391400
vt 0.292928 0.496072
vt 0.312413 0.496630
vt 0.297583 0.384015
vt 0.317041 0.383541
vt 0.542855 0.234243
vt 0.563514 0.248971
vt 0.545668 0.304938
vt 0.523997 0.295449
vt 0.555037 0.214965
vt 0.575158 0.226596
vt 0.307470 0.228144
vt 0.286008 0.241588
vt 0.275860 0.218377
vt 0.297112 0.208153
vt 0.322398 0.290054
vt 0.300346 0.298281
vt 0.599299 0.770012
vt 0.591865 0.750002
vt 0.580321 0.701047
vt 0.581796 0.617726
vt 0.586236 0.504468
vt 0.607823 0.260729
vt 0.616205 0.240442
vt 0.587343 0.391183
vt 0.591563 0.309116
vt 0.400738 1.000000
vt 0.406429 0.842531
vt 0.406935 0.825871
vt 0.409426 0.742580
vt 0.413355 0.602970
vt 0.416218 0.499947
vt 0.419109 0.396974
vt 0.423308 0.256732
vt 0.424092 0.172879
vt 0.424474 0.156337
vt 0.431071 0.000000
vt 0.237176 0.229560
vt 0.190856 0.046534
vt 0.244897 0.249616
vt 0.256934 0.298659
vt 0.255563 0.381689
vt 0.251111 0.494863
vt 0.249235 0.608144
vt 0.246068 0.691300
vt 0.231350 0.739570
vt 0.222499 0.759105
vt 0.645212 0.953047
vn 0.035516 0.000000 0.999369
vn 0.707106 0.000000 0.707107
vn 0.707913 0.000000 0.706300
vn 0.035342 0.000000 0.999375
vn 0.998134 0.000000 0.061062
vn 0.998139 0.000000 0.060979
vn 0.035342 -0.000000 -0.999375
vn 0.707913 -0.000000 -0.706300
vn 0.707106 0.000000 -0.707107
vn 0.035516 0.000000 -0.999369
vn 0.998008 0.000000 -0.063082
vn 0.998003 -0.000000 -0.063167
vn 1.000000 0.000000 0.000000
vn 0.938666 0.344828 -0.000000
vn 0.937680 0.343114 0.055029
vn 1.000000 -0.000000 0.000000
vn 0.691271 0.719751 0.064047
vn 0.687198 0.726470 -0.000000
vn 0.216249 0.976338 0.000000
vn 0.218006 0.973967 0.062144
vn 0.000000 1.000000 0.000000
vn 0.000000 0.998155 0.060722
vn 0.727466 0.266844 0.632130
vn 0.083809 0.032085 0.995965
vn 0.691361 0.719464 -0.066268
vn 0.490260 0.506222 -0.709496
vn 0.153460 0.680837 -0.716178
vn 0.218052 0.973818 -0.064284
vn 0.035810 0.050969 -0.998058
vn 0.006478 0.042060 -0.999094
vn 0.083809 0.032085 -0.995965
vn 0.727466 0.266844 -0.632129
vn 0.937594 0.343035 -0.056970
vn 0.035810 0.050969 0.998058
vn 0.490260 0.506222 0.709496
vn 0.153460 0.680837 0.716178
vn 0.006478 0.042060 0.999094
vn 0.000000 0.710441 0.703757
vn 0.000000 0.034948 0.999389
vn 0.000000 0.710441 -0.703757
vn 0.000000 0.998025 -0.062817
vn 0.000000 0.034948 -0.999389
vn -0.035516 0.000000 0.999369
vn -0.035342 0.000000 0.999375
vn -0.707914 0.000000 0.706299
vn -0.707107 0.000000 0.707106
vn -0.998139 0.000000 0.060978
vn -0.998134 0.000000 0.061061
vn -0.035342 0.000000 -0.999375
vn -0.035516 0.000000 -0.999369
vn -0.707107 0.000000 -0.707106
vn -0.707914 0.000000 -0.706299
vn -0.998003 0.000000 -0.063166
vn -0.998008 0.000000 -0.063081
vn -0.937680 0.343114 0.055029
vn -0.938666 0.344828 -0.000000
vn -1.000000 0.000000 0.000000
vn -1.000000 0.000000 0.000000
vn -0.691271 0.719751 0.064047
vn -0.218006 0.973967 0.062144
vn -0.216249 0.976338 0.000000
vn -0.687198 0.726470 -0.000000
vn -0.083809 0.032085 0.995965
vn -0.727466 0.266844 0.632129
vn -0.691361 0.719464 -0.066267
vn -0.218052 0.973818 -0.064284
vn -0.153460 0.680837 -0.716178
vn -0.490260 0.506223 -0.709495
vn -0.006478 0.042060 -0.999094
vn -0.035810 0.050969 -0.998058
vn -0.083809 0.032085 -0.995965
vn -0.727467 0.266845 -0.632128
vn -0.937594 0.343035 -0.056969
vn -0.035810 0.050969 0.998058
vn -0.006478 0.042060 0.999094
vn -0.153460 0.680837 0.716178
vn -0.490260 0.506222 0.709496
vn -0.961241 0.000000 0.275709
vn -0.160795 0.000000 0.986988
vn -0.161515 0.000000 0.986870
vn -0.961046 0.000000 0.276387
vn -0.083488 -0.019424 0.996319
vn -0.911740 -0.247249 0.328022
vn -0.083488 -0.019424 -0.996319
vn -0.907464 -0.246412 -0.340278
vn -0.594975 -0.723149 -0.350799
vn -0.070657 -0.060156 -0.995685
vn -0.161515 0.000000 -0.986870
vn -0.957627 0.000000 -0.288011
vn -0.160795 0.000000 -0.986988
vn -0.957834 0.000000 -0.287322
vn -0.070657 -0.060156 0.995685
vn -0.599120 -0.725865 0.337898
vn -0.017239 -0.138784 0.990173
vn -0.105635 -0.951873 0.287714
vn -0.105177 -0.948268 -0.299543
vn -0.017239 -0.138784 -0.990173
vn 0.000000 -0.163757 0.986501
vn 0.000000 -0.960684 0.277646
vn 0.017239 -0.138784 0.990173
vn 0.105635 -0.951873 0.287714
vn 0.000000 -0.957242 -0.289288
vn 0.000000 -0.163757 -0.986501
vn 0.105177 -0.948268 -0.299543
vn 0.017239 -0.138784 -0.990173
vn 0.083488 -0.019424 0.996319
vn 0.911740 -0.247249 0.328022
vn 0.599120 -0.725865 0.337898
vn 0.070657 -0.060156 0.995685
vn 0.161515 0.000000 0.986870
vn 0.961046 0.000000 0.276388
vn 0.160795 0.000000 0.986988
vn 0.961241 0.000000 0.275709
vn 0.083488 -0.019424 -0.996319
vn 0.907464 -0.246413 -0.340279
vn 0.957627 0.000000 -0.288011
vn 0.161515 0.000000 -0.986870
vn 0.070657 -0.060156 -0.995685
vn 0.594975 -0.723149 -0.350799
vn 0.957834 0.000000 -0.287322
vn 0.160795 0.000000 -0.986988
vn -1.000000 0.000000 0.000000
vn -0.967168 -0.254138 0.000000
vn -1.000000 0.000000 0.000000
vn -0.663957 -0.747771 0.000000
vn -0.111623 -0.993751 0.000000
vn 0.000000 -1.000000 0.000000
vn 0.967168 -0.254138 0.000000
vn 1.000000 0.000000 0.000000
vn 1.000000 0.000000 0.000000
vn 0.111623 -0.993751 0.000000
vn 0.663956 -0.747771 0.000000
s 1
g pCube1
usemtl initialShadingGroup
f 3/1/1 2/2/2 5/3/3 4/4/4
f 2/2/2 1/5/5 6/6/6 5/3/3
f 12/7/7 11/8/8 16/9/9 18/10/10
f 11/8/8 10/11/11 17/12/12 16/9/9
f 6/6/6 123/123/13 124/124/14 15/14/15
f 6/6/6 1/5/5 122/122/16 123/123/13
f 27/15/17 125/125/18 126/126/19 21/18/20
f 21/18/20 126/126/19 127/127/21 32/20/22
f 4/4/4 5/3/3 14/26/23 13/27/24
f 5/3/3 6/6/6 15/14/15 14/26/23
f 28/16/25 29/28/26 23/29/27 22/17/28
f 29/28/26 30/30/29 24/31/30 23/29/27
f 9/32/31 8/33/32 11/8/8 12/7/7
f 8/33/32 7/13/33 10/11/11 11/8/8
f 25/34/34 26/35/35 20/36/36 19/37/37
f 26/35/35 27/15/17 21/18/20 20/36/36
f 19/37/37 20/36/36 35/38/38 31/39/39
f 20/36/36 21/18/20 32/20/22 35/38/38
f 22/17/28 23/29/27 36/40/40 33/19/41
f 23/29/27 24/31/30 34/41/42 36/40/40
f 13/27/24 14/26/23 26/35/35 25/34/34
f 14/26/23 15/14/15 27/15/17 26/35/35
f 15/14/15 124/124/14 125/125/18 27/15/17
f 7/13/33 8/33/32 29/28/26 28/16/25
f 8/33/32 9/32/31 30/30/29 29/28/26
f 39/42/43 40/43/44 41/44/45 38/45/46
f 38/45/46 41/44/45 42/46/47 37/47/48
f 48/48/49 54/49/50 52/50/51 47/51/52
f 47/51/52 52/50/51 53/52/53 46/53/54
f 42/46/47 51/54/55 130/130/56 131/131/57
f 42/46/47 131/131/57 132/132/58 37/47/48
f 63/56/59 57/57/60 128/128/61 129/129/62
f 57/57/60 32/20/22 127/127/21 128/128/61
f 40/43/44 49/65/63 50/66/64 41/44/45
f 41/44/45 50/66/64 51/54/55 42/46/47
f 64/59/65 58/58/66 59/67/67 65/68/68
f 65/68/68 59/67/67 60/69/69 66/70/70
f 45/71/71 48/48/49 47/51/52 44/72/72
f 44/72/72 47/51/52 46/53/54 43/55/73
f 61/73/74 55/74/75 56/75/76 62/76/77
f 62/76/77 56/75/76 57/57/60 63/56/59
f 55/74/75 31/39/39 35/38/38 56/75/76
f 56/75/76 35/38/38 32/20/22 57/57/60
f 58/58/66 33/19/41 36/40/40 59/67/67
f 59/67/67 36/40/40 34/41/42 60/69/69
f 49/65/63 61/73/74 62/76/77 50/66/64
f 50/66/64 62/76/77 63/56/59 51/54/55
f 51/54/55 63/56/59 129/129/62 130/130/56
f 43/55/73 64/59/65 65/68/68 44/72/72
f 44/72/72 65/68/68 66/70/70 45/71/71
f 78/22/78 79/21/79 80/77/80 81/78/81
f 81/78/81 80/77/80 87/79/82 86/80/83
f 82/81/84 83/82/85 93/83/86 92/84/87
f 83/82/85 82/81/84 85/85/88 84/86/89
f 84/86/89 85/85/88 88/25/90 89/24/91
f 86/80/83 87/79/82 90/87/92 91/88/93
f 91/88/93 90/87/92 94/89/94 95/90/95
f 92/84/87 93/83/86 99/91/96 98/92/97
f 95/90/95 94/89/94 97/93/98 96/94/99
f 96/94/99 97/93/98 115/95/100 114/96/101
f 98/92/97 99/91/96 101/97/102 100/98/103
f 100/98/103 101/97/102 119/99/104 118/100/105
f 102/101/106 103/102/107 117/103/108 116/104/109
f 103/102/107 102/101/106 104/105/110 105/106/111
f 105/106/111 104/105/110 111/64/112 110/63/113
f 106/107/114 107/108/115 108/109/116 109/110/117
f 107/108/115 106/107/114 120/111/118 121/112/119
f 109/110/117 108/109/116 113/61/120 112/60/121
f 114/96/101 115/95/100 116/104/109 117/103/108
f 118/100/105 119/99/104 121/112/119 120/111/118
f 84/86/89 68/142/122 69/141/123 83/82/85
f 84/86/89 89/24/91 67/23/124 68/142/122
f 93/83/86 70/140/125 71/139/126 99/91/96
f 99/91/96 71/139/126 72/138/127 101/97/102
f 80/77/80 4/4/4 13/27/24 87/79/82
f 82/81/84 9/32/31 12/7/7 85/85/88
f 80/77/80 79/21/79 3/1/1 4/4/4
f 85/85/88 12/7/7 18/10/10 88/25/90
f 90/87/92 25/34/34 19/37/37 94/89/94
f 30/30/29 92/84/87 98/92/97 24/31/30
f 94/89/94 19/37/37 31/39/39 97/93/98
f 24/31/30 98/92/97 100/98/103 34/41/42
f 87/79/82 13/27/24 25/34/34 90/87/92
f 9/32/31 82/81/84 92/84/87 30/30/29
f 83/82/85 69/141/123 70/140/125 93/83/86
f 108/109/116 107/108/115 75/135/128 76/133/129
f 113/61/120 108/109/116 76/133/129 77/134/130
f 121/112/119 119/99/104 73/137/131 74/136/132
f 119/99/104 101/97/102 72/138/127 73/137/131
f 104/105/110 102/101/106 49/65/63 40/43/44
f 106/107/114 109/110/117 48/48/49 45/71/71
f 111/64/112 104/105/110 40/43/44 39/42/43
f 109/110/117 112/60/121 54/49/50 48/48/49
f 116/104/109 115/95/100 55/74/75 61/73/74
f 66/70/70 60/69/69 118/100/105 120/111/118
f 115/95/100 97/93/98 31/39/39 55/74/75
f 60/69/69 34/41/42 100/98/103 118/100/105
f 102/101/106 116/104/109 61/73/74 49/65/63
f 45/71/71 66/70/70 120/111/118 106/107/114
f 107/108/115 121/112/119 74/136/132 75/135/128
f 68/113/122 67/143/124 78/22/78 81/78/81
f 69/114/123 68/113/122 81/78/81 86/80/83
f 70/115/125 69/114/123 86/80/83 91/88/93
f 71/116/126 70/115/125 91/88/93 95/90/95
f 72/117/127 71/116/126 95/90/95 96/94/99
f 73/120/131 72/117/127 96/94/99 114/96/101
f 74/121/132 73/120/131 114/96/101 117/103/108
f 75/118/128 74/121/132 117/103/108 103/102/107
f 76/119/129 75/118/128 103/102/107 105/106/111
f 77/62/130 76/119/129 105/106/111 110/63/113
f 123/123/13 122/122/16 17/12/12 10/11/11
f 124/124/14 123/123/13 10/11/11 7/13/33
f 125/125/18 124/124/14 7/13/33 28/16/25
f 126/126/19 125/125/18 28/16/25 22/17/28
f 127/127/21 126/126/19 22/17/28 33/19/41
f 128/128/61 127/127/21 33/19/41 58/58/66
f 129/129/62 128/128/61 58/58/66 64/59/65
f 130/130/56 129/129/62 64/59/65 43/55/73
f 131/131/57 130/130/56 43/55/73 46/53/54
f 132/132/58 131/131/57 46/53/54 53/52/53
